<svg width="61" height="60" viewBox="0 0 61 60" fill="none" xmlns="http://www.w3.org/2000/svg">
<g clip-path="url(#clip0_2674_68716)">
<path d="M30.63 59.0927C46.764 59.0927 59.8433 46.0134 59.8433 29.8793C59.8433 13.7453 46.764 0.666016 30.63 0.666016C14.4959 0.666016 1.41663 13.7453 1.41663 29.8793C1.41663 46.0134 14.4959 59.0927 30.63 59.0927Z" fill="white" stroke="#41748D"/>
<path d="M12.3346 45.3184H49.1186" stroke="#41748D" stroke-width="1.368" stroke-linecap="round" stroke-linejoin="round"/>
<path d="M12.75 45.6557V28.8797C12.75 27.7997 13.622 26.9277 14.702 26.9277H19.822C20.894 26.9277 21.766 27.7917 21.774 28.8637L21.894 45.6477" stroke="#41748D" stroke-width="1.308" stroke-miterlimit="10"/>
<path d="M39.599 45.6557V28.8797C39.599 27.7997 40.471 26.9277 41.551 26.9277H46.671C47.743 26.9277 48.615 27.7917 48.623 28.8637L48.743 45.6477" stroke="#41748D" stroke-width="1.308" stroke-miterlimit="10"/>
<path d="M39.5985 44.9875L39.3665 18.2755C39.3505 16.5635 37.6625 15.1875 35.5825 15.1875H25.6785C23.5905 15.1875 21.8945 16.5795 21.8945 18.2995V24.3235" stroke="#41748D" stroke-width="1.308" stroke-miterlimit="10" stroke-linecap="round"/>
<path d="M34.2948 22.0007H32.4707C32.3347 22.0007 32.2147 21.8807 32.2147 21.7367V20.1527C32.2147 20.0087 32.1028 19.8887 31.9588 19.8887H29.5347C29.3987 19.8887 29.2787 20.0087 29.2787 20.1527V21.7367C29.2787 21.8807 29.1667 22.0007 29.0227 22.0007H27.1987C27.0627 22.0007 26.9427 22.1207 26.9427 22.2647V24.7687C26.9427 24.9127 27.0547 25.0327 27.1987 25.0327H29.0227C29.1587 25.0327 29.2787 25.1527 29.2787 25.2967V27.4887C29.2787 27.6327 29.3907 27.7527 29.5347 27.7527H31.9588C32.0948 27.7527 32.2147 27.6327 32.2147 27.4887V25.2967C32.2147 25.1527 32.3267 25.0327 32.4707 25.0327H34.2948C34.4308 25.0327 34.5508 24.9127 34.5508 24.7687V22.2647C34.5508 22.1207 34.4388 22.0007 34.2948 22.0007Z" fill="#7EBCC6" stroke="#41748D" stroke-width="1.2" stroke-miterlimit="10"/>
<path d="M26.582 44.9851V35.6411C26.582 34.7131 27.334 33.9531 28.27 33.9531H33.238C34.166 33.9531 34.926 34.7051 34.926 35.6411V44.9851" stroke="#41748D" stroke-width="1.308" stroke-miterlimit="10"/>
<path d="M30.75 33.959V45.319" stroke="#41748D" stroke-width="1.308" stroke-miterlimit="10"/>
</g>
<defs>
<clipPath id="clip0_2674_68716">
<rect width="60" height="60" fill="white" transform="translate(0.75)"/>
</clipPath>
</defs>
</svg>
