<svg width="19" height="23" viewBox="0 0 19 23" fill="none" xmlns="http://www.w3.org/2000/svg">
<g clip-path="url(#clip0)">
<path fill-rule="evenodd" clip-rule="evenodd" d="M9.23077 22.9001L9.90533 22.3111C15.5782 17.3576 18.4615 13.0326 18.4615 9.23077C18.4615 3.84683 14.2594 0 9.23077 0C4.2021 0 0 3.84683 0 9.23077C0 13.0326 2.88339 17.3576 8.5562 22.3111L9.23077 22.9001Z" fill="#C02C57"/>
<path fill-rule="evenodd" clip-rule="evenodd" d="M9.22978 20.1676C4.41605 15.8292 2.05029 12.153 2.05029 9.23076C2.05029 5.02214 5.29553 2.05127 9.22978 2.05127C13.164 2.05127 16.4093 5.02214 16.4093 9.23076C16.4093 12.153 14.0435 15.8292 9.22978 20.1676Z" fill="#C02C57"/>
<path fill-rule="evenodd" clip-rule="evenodd" d="M9.22977 4.10254C12.062 4.10254 14.358 6.39852 14.358 9.23074C14.358 12.0629 12.062 14.3589 9.22977 14.3589C6.39754 14.3589 4.10156 12.0629 4.10156 9.23074C4.10156 6.39852 6.39754 4.10254 9.22977 4.10254Z" fill="#C02C57"/>
<path fill-rule="evenodd" clip-rule="evenodd" d="M6.15308 9.23122C6.15308 7.53189 7.53061 6.1543 9.23 6.1543C10.9294 6.1543 12.3069 7.53189 12.3069 9.23122C12.3069 10.9306 10.9294 12.3081 9.23 12.3081C7.53061 12.3081 6.15308 10.9306 6.15308 9.23122Z" fill="#C02C57"/>
</g>
<defs>
<clipPath id="clip0">
<rect width="18.8718" height="23" fill="white"/>
</clipPath>
</defs>
</svg>
