<svg width="61" height="60" viewBox="0 0 61 60" fill="none" xmlns="http://www.w3.org/2000/svg">
<g clip-path="url(#clip0_2674_68727)">
<path d="M30.63 59.0927C46.764 59.0927 59.8433 46.0134 59.8433 29.8793C59.8433 13.7453 46.764 0.666016 30.63 0.666016C14.4959 0.666016 1.41663 13.7453 1.41663 29.8793C1.41663 46.0134 14.4959 59.0927 30.63 59.0927Z" fill="white" stroke="#41748D"/>
<path d="M47.5498 26.798L47.9215 26.7255C48.9098 26.526 49.6079 25.6556 49.6079 24.6583V24.4498C49.6079 23.7788 49.2906 23.1442 48.7466 22.7452L32.0004 10.4236C31.2569 9.87962 30.2415 9.87962 29.498 10.4236L12.8063 22.6908C12.226 23.117 11.8815 23.797 11.8815 24.5223V24.6492C11.8815 25.6556 12.5887 26.517 13.5679 26.7164L15.1001 27.0338C15.6441 27.1426 16.034 27.6231 16.034 28.1762V43.8706C16.034 45.0402 16.9769 45.9831 18.1465 45.9831H43.3428C44.5124 45.9831 45.4554 45.0402 45.4554 43.8706V27.2332" stroke="#41748D" stroke-width="1.36" stroke-linecap="round" stroke-linejoin="round"/>
<path d="M33.2633 24.3648H35.1764C35.4031 24.3648 35.5844 24.1835 35.5844 23.9568C35.5844 23.7302 35.4031 23.5488 35.1764 23.5488H33.2633C33.0367 23.5488 32.8553 23.7302 32.8553 23.9568C32.8553 24.1835 33.0367 24.3648 33.2633 24.3648Z" fill="#41748D"/>
<path d="M32.0299 26.5543H35.167C35.3937 26.5543 35.575 26.3729 35.575 26.1463C35.575 25.9196 35.3937 25.7383 35.167 25.7383H32.0299C31.8033 25.7383 31.6219 25.9196 31.6219 26.1463C31.6219 26.3729 31.8033 26.5543 32.0299 26.5543Z" fill="#41748D"/>
<path d="M35.1652 27.9297H33.2521C33.0255 27.9297 32.8441 28.111 32.8441 28.3377C32.8441 28.5644 33.0255 28.7457 33.2521 28.7457H35.1652C35.3918 28.7457 35.5732 28.5644 35.5732 28.3377C35.5732 28.111 35.3918 27.9297 35.1652 27.9297Z" fill="#41748D"/>
<path d="M36.9085 36.7647V29.9919C36.1106 30.4815 35.2855 30.7263 34.4061 30.7263C34.2338 30.7263 34.0706 30.7263 33.8983 30.6991C32.8194 30.5903 31.7858 30.146 30.7885 29.7199C28.7938 28.8676 26.908 28.0697 24.5597 29.6745C24.5053 29.7108 24.4509 29.738 24.3965 29.7471V36.7556C24.4328 36.9823 24.5416 37.3449 24.8136 37.6804C25.548 38.5508 26.7992 38.3695 26.8989 38.3604C28.549 38.1881 29.1565 38.5145 29.3832 38.8863C29.4647 39.0132 29.5101 39.0948 29.7096 39.9017C29.9816 41.0079 30.1175 41.5609 30.1447 41.7695C30.4802 43.8911 29.7277 45.242 30.317 45.5865C30.4349 45.6591 30.6253 45.6863 30.7703 45.6228C31.4141 45.3145 30.3261 43.4196 31.0242 41.8329C31.0242 41.8329 31.541 40.6633 31.5682 39.8655C31.5682 39.8655 31.5682 39.8201 31.5682 39.7657C31.5954 39.5391 31.6498 39.4847 31.6952 39.2852C31.7496 39.0495 31.7042 38.9588 31.8039 38.6959C31.8039 38.6687 31.8221 38.6505 31.8221 38.6415C32.0125 38.2697 32.8829 38.4692 33.9799 38.3785C34.5965 38.3241 35.1042 38.1972 35.4578 38.0884C35.5485 38.0884 36.0562 38.1065 36.8903 36.7828L36.9085 36.7647Z" fill="#7EBCC6"/>
<path d="M31.1223 45.8251V40.2672C31.6845 40.24 32.1287 39.7685 32.1287 39.1973V38.6715H34.4407C36.0365 38.6715 37.333 37.375 37.333 35.7792V23.095C37.333 21.4992 36.0365 20.2027 34.4407 20.2027H33.0445C32.7997 19.1056 31.8205 18.2715 30.6509 18.2715C29.4813 18.2715 28.493 19.0966 28.2573 20.2027H26.861C25.2653 20.2027 23.9688 21.4992 23.9688 23.095V35.7792C23.9688 37.375 25.2653 38.6715 26.861 38.6715H29.173V39.1973C29.173 39.7323 29.5629 40.1675 30.0706 40.2491V45.8251H31.1314H31.1223Z" stroke="#41748D" stroke-width="1.36" stroke-miterlimit="10"/>
<path d="M30.651 21.2975C30.9915 21.2975 31.2675 21.0215 31.2675 20.681C31.2675 20.3405 30.9915 20.0645 30.651 20.0645C30.3105 20.0645 30.0344 20.3405 30.0344 20.681C30.0344 21.0215 30.3105 21.2975 30.651 21.2975Z" fill="#7EBCC6"/>
</g>
<defs>
<clipPath id="clip0_2674_68727">
<rect width="60" height="60" fill="white" transform="translate(0.75)"/>
</clipPath>
</defs>
</svg>
